<svg width="800" height="600" xmlns="http://www.w3.org/2000/svg">
  <!-- Title -->
  <text x="400" y="30" text-anchor="middle" font-size="20" font-weight="bold">LMS Architecture Diagram</text>
  
  <!-- Frontend Box -->
  <rect x="50" y="80" width="150" height="80" fill="#e3f2fd" stroke="#1976d2" stroke-width="2" rx="5"/>
  <text x="125" y="115" text-anchor="middle" font-size="14" font-weight="bold">Next.js Frontend</text>
  <text x="125" y="135" text-anchor="middle" font-size="12">Port: 3000</text>
  <text x="125" y="150" text-anchor="middle" font-size="12">SSR + Client</text>
  
  <!-- LMS API Box -->
  <rect x="300" y="80" width="150" height="80" fill="#fff3e0" stroke="#f57c00" stroke-width="2" rx="5"/>
  <text x="375" y="115" text-anchor="middle" font-size="14" font-weight="bold">LMS API Service</text>
  <text x="375" y="135" text-anchor="middle" font-size="12">Nest.js</text>
  <text x="375" y="150" text-anchor="middle" font-size="12">Port: 3001</text>
  
  <!-- Similar API Box -->
  <rect x="550" y="80" width="150" height="80" fill="#f3e5f5" stroke="#7b1fa2" stroke-width="2" rx="5"/>
  <text x="625" y="115" text-anchor="middle" font-size="14" font-weight="bold">Similar Courses</text>
  <text x="625" y="135" text-anchor="middle" font-size="12">Nest.js</text>
  <text x="625" y="150" text-anchor="middle" font-size="12">Port: 3002</text>
  
  <!-- LMS Database -->
  <rect x="300" y="250" width="150" height="80" fill="#e8f5e9" stroke="#388e3c" stroke-width="2" rx="5"/>
  <text x="375" y="285" text-anchor="middle" font-size="14" font-weight="bold">PostgreSQL</text>
  <text x="375" y="305" text-anchor="middle" font-size="12">LMS Database</text>
  <text x="375" y="320" text-anchor="middle" font-size="12">Port: 5432</text>
  
  <!-- Similar Database -->
  <rect x="550" y="250" width="150" height="80" fill="#e8f5e9" stroke="#388e3c" stroke-width="2" rx="5"/>
  <text x="625" y="285" text-anchor="middle" font-size="14" font-weight="bold">PostgreSQL</text>
  <text x="625" y="305" text-anchor="middle" font-size="12">Similar DB</text>
  <text x="625" y="320" text-anchor="middle" font-size="12">Port: 5433</text>
  
  <!-- Arrows -->
  <!-- Frontend to LMS API -->
  <line x1="200" y1="120" x2="300" y2="120" stroke="#1976d2" stroke-width="2" marker-end="url(#arrowhead)"/>
  <text x="250" y="110" text-anchor="middle" font-size="10">REST API</text>
  
  <!-- Frontend to Similar API -->
  <line x1="200" y1="140" x2="550" y2="140" stroke="#7b1fa2" stroke-width="2" marker-end="url(#arrowhead)"/>
  <text x="375" y="130" text-anchor="middle" font-size="10">REST API</text>
  
  <!-- LMS API to Database -->
  <line x1="375" y1="160" x2="375" y2="250" stroke="#388e3c" stroke-width="2" marker-end="url(#arrowhead)"/>
  <text x="390" y="205" text-anchor="middle" font-size="10">TypeORM</text>
  
  <!-- Similar API to Database -->
  <line x1="625" y1="160" x2="625" y2="250" stroke="#388e3c" stroke-width="2" marker-end="url(#arrowhead)"/>
  <text x="640" y="205" text-anchor="middle" font-size="10">TypeORM</text>
  
  <!-- Similar API to LMS API -->
  <line x1="450" y1="160" x2="550" y2="160" stroke="#f57c00" stroke-width="2" marker-end="url(#arrowhead)"/>
  <text x="500" y="150" text-anchor="middle" font-size="10">HTTP</text>
  
  <!-- Arrow marker -->
  <defs>
    <marker id="arrowhead" markerWidth="10" markerHeight="10" refX="9" refY="3" orient="auto">
      <polygon points="0 0, 10 3, 0 6" fill="#333"/>
    </marker>
  </defs>
  
  <!-- Legend -->
  <rect x="50" y="400" width="300" height="150" fill="#fafafa" stroke="#ccc" stroke-width="1" rx="5"/>
  <text x="200" y="425" text-anchor="middle" font-size="16" font-weight="bold">Components</text>
  
  <rect x="70" y="445" width="20" height="15" fill="#e3f2fd" stroke="#1976d2"/>
  <text x="100" y="457" font-size="12">Frontend (Next.js)</text>
  
  <rect x="70" y="470" width="20" height="15" fill="#fff3e0" stroke="#f57c00"/>
  <text x="100" y="482" font-size="12">LMS API Service (Nest.js)</text>
  
  <rect x="70" y="495" width="20" height="15" fill="#f3e5f5" stroke="#7b1fa2"/>
  <text x="100" y="507" font-size="12">Similar Courses Service (Nest.js)</text>
  
  <rect x="70" y="520" width="20" height="15" fill="#e8f5e9" stroke="#388e3c"/>
  <text x="100" y="532" font-size="12">PostgreSQL Database</text>
  
  <!-- Message Flow -->
  <rect x="450" y="400" width="280" height="150" fill="#fafafa" stroke="#ccc" stroke-width="1" rx="5"/>
  <text x="590" y="425" text-anchor="middle" font-size="16" font-weight="bold">Message Flow</text>
  
  <text x="470" y="450" font-size="12">1. User requests courses → Frontend</text>
  <text x="470" y="470" font-size="12">2. Frontend → LMS API (GET /courses)</text>
  <text x="470" y="490" font-size="12">3. LMS API → PostgreSQL (query)</text>
  <text x="470" y="510" font-size="12">4. User views course → Similar API</text>
  <text x="470" y="530" font-size="12">5. Similar API → LMS API (fetch course data)</text>
</svg>

